<svg width="189" height="180" viewBox="0 0 189 180" fill="none" xmlns="http://www.w3.org/2000/svg">
<path d="M95.9319 7.48935L157.771 41.4922C163.364 44.5676 166.839 50.4441 166.839 56.8269V123.173C166.839 129.556 163.364 135.432 157.771 138.508L95.9319 172.511C90.6813 175.398 84.3187 175.398 79.0681 172.511L17.2287 138.508C11.6357 135.432 8.1606 129.556 8.1606 123.173V56.8269C8.1606 50.4441 11.6357 44.5676 17.2287 41.4922L79.0681 7.48935C84.3187 4.60229 90.6813 4.60228 95.9319 7.48935Z" stroke="white" stroke-width="5"/>
<path d="M82.2578 77.4769L82.7044 77.1709C84.0708 76.2346 85.9374 76.5831 86.874 77.9494L116.774 121.566C118.023 123.388 116.943 125.888 114.761 126.227L113.684 126.395C112.534 126.574 111.385 126.072 110.735 125.106L81.4648 81.6275C80.5448 80.2609 80.8988 78.408 82.2578 77.4769Z" fill="white" stroke="white"/>
<path d="M80.1524 139.907L79.1524 138.972C78.5453 138.405 78.2007 137.611 78.2007 136.78V42.8439C78.2007 42.013 78.5453 41.2193 79.1524 40.652L80.1524 39.7175C82.0696 37.9259 85.2007 39.2854 85.2007 41.9094V137.715C85.2007 140.339 82.0696 141.698 80.1524 139.907Z" fill="white" stroke="white"/>
<path d="M58.771 100.279L59.4741 100.982C60.8411 102.349 63.0575 102.349 64.4241 100.982L113.289 52.0889C115.068 50.3091 114.444 47.2899 112.106 46.3612L111.11 45.9658C109.812 45.4503 108.331 45.7562 107.343 46.7441L58.7708 95.3292C57.4042 96.6962 57.4043 98.9123 58.771 100.279Z" fill="white" stroke="#151515"/>
<path d="M58.8055 127.629L57.9315 126.797C57.3367 126.231 57 125.446 57 124.625V55.1121C57 54.2892 57.338 53.5024 57.9349 52.9359L58.9237 51.9977C60.8367 50.1823 63.993 51.5413 63.9887 54.1786L63.874 125.461C63.8697 128.096 60.714 129.446 58.8055 127.629Z" fill="white" stroke="white"/>
</svg>
