<svg width="24" height="24" viewBox="0 0 24 24" fill="none" xmlns="http://www.w3.org/2000/svg">
<path d="M18.6 15.5C19.7498 15.5003 20.8541 15.0505 21.6764 14.2468C22.4988 13.4432 22.9739 12.3495 23 11.2C23 10.033 22.5364 8.91389 21.7113 8.08873C20.8861 7.26357 19.767 6.8 18.6 6.8H18.1C17.648 5.54348 16.8201 4.45664 15.7286 3.68728C14.6372 2.91791 13.3353 2.50336 12 2.5C10.6747 2.49456 9.38148 2.90719 8.30426 3.6792C7.22704 4.45121 6.42072 5.54326 6 6.8H5.4C4.23305 6.8 3.11389 7.26357 2.28873 8.08873C1.46357 8.91389 1 10.033 1 11.2C1.02613 12.3495 1.50121 13.4432 2.32356 14.2468C3.1459 15.0505 4.25017 15.5003 5.4 15.5" stroke="white" stroke-miterlimit="10"/>
<path d="M8.5 17L12 20L15.5 17" stroke="white" stroke-miterlimit="10"/>
<path d="M12 20V12.5" stroke="white" stroke-miterlimit="10"/>
</svg>
