<svg width="24" height="24" viewBox="0 0 24 24" fill="none" xmlns="http://www.w3.org/2000/svg">
<path d="M12 2.247C9.62481 2.246 7.32682 3.09045 5.51745 4.62917C3.70807 6.16789 2.50546 8.30041 2.12494 10.6449C1.74441 12.9894 2.21082 15.3928 3.44065 17.4248C4.67048 19.4568 6.58342 20.9847 8.837 21.735C9.337 21.829 9.521 21.52 9.521 21.254C9.521 21.017 9.512 20.387 9.508 19.554C6.727 20.154 6.14 18.212 6.14 18.212C5.95539 17.6074 5.56061 17.0889 5.027 16.75C4.122 16.13 5.098 16.142 5.098 16.142C5.41477 16.1858 5.71736 16.3013 5.98269 16.4798C6.24802 16.6583 6.46907 16.8951 6.629 17.172C6.76489 17.4186 6.94831 17.6359 7.16867 17.8112C7.38903 17.9866 7.64196 18.1165 7.91283 18.1935C8.1837 18.2705 8.46714 18.293 8.74678 18.2598C9.02641 18.2266 9.2967 18.1383 9.542 18C9.58641 17.493 9.81098 17.0187 10.175 16.663C7.954 16.413 5.62 15.553 5.62 11.721C5.60585 10.7289 5.97436 9.76951 6.649 9.042C6.33795 8.18271 6.36946 7.23669 6.737 6.4C6.737 6.4 7.574 6.132 9.487 7.425C11.1232 6.97436 12.8508 6.97436 14.487 7.425C16.387 6.132 17.224 6.4 17.224 6.4C17.5874 7.23873 17.6231 8.18324 17.324 9.047C17.9972 9.77675 18.3641 10.7373 18.349 11.73C18.349 15.572 16.012 16.417 13.787 16.663C14.0239 16.9061 14.2066 17.1967 14.323 17.5156C14.4393 17.8345 14.4867 18.1744 14.462 18.513C14.462 19.852 14.449 20.927 14.449 21.252C14.449 21.514 14.624 21.827 15.137 21.727C17.3976 20.9868 19.3197 19.464 20.5576 17.4329C21.7955 15.4017 22.2679 12.9954 21.8897 10.647C21.5115 8.29856 20.3076 6.16221 18.4947 4.62233C16.6817 3.08245 14.3787 2.24016 12 2.247" fill="white"/>
</svg>
