<svg width="24" height="24" viewBox="0 0 24 24" fill="none" xmlns="http://www.w3.org/2000/svg">
<path d="M12 22C17.5228 22 22 17.5228 22 12C22 6.47715 17.5228 2 12 2C6.47715 2 2 6.47715 2 12C2 17.5228 6.47715 22 12 22Z" stroke="white"/>
<path d="M12 22C14.2091 22 16 17.5228 16 12C16 6.47715 14.2091 2 12 2C9.79086 2 8 6.47715 8 12C8 17.5228 9.79086 22 12 22Z" stroke="white"/>
<path d="M2 12H22" stroke="white"/>
<path d="M20 18C17.4703 16.937 14.743 16.4256 12 16.5C9.25702 16.4256 6.52971 16.937 4 18" stroke="white"/>
<path d="M4 6C6.52971 7.06302 9.25702 7.57439 12 7.5C14.743 7.57439 17.4703 7.06302 20 6" stroke="white"/>
</svg>
