<svg width="24" height="24" viewBox="0 0 24 24" fill="none" xmlns="http://www.w3.org/2000/svg">
<path d="M12 22C17.5228 22 22 17.5228 22 12C22 6.47715 17.5228 2 12 2C6.47715 2 2 6.47715 2 12C2 17.5228 6.47715 22 12 22Z" stroke="white"/>
<path d="M8 14C8.48519 14.5997 9.09325 15.0886 9.78323 15.4335C10.4732 15.7785 11.2291 15.9717 12 16C12.7709 15.9717 13.5268 15.7785 14.2168 15.4335C14.9068 15.0886 15.5148 14.5997 16 14" stroke="white"/>
<path d="M15 10.5V8" stroke="white"/>
<path d="M9 10.5V8" stroke="white"/>
</svg>
