<svg width="24" height="24" viewBox="0 0 24 24" fill="none" xmlns="http://www.w3.org/2000/svg">
<path d="M12 8L10.7 6.8C9.83045 5.99168 8.68722 5.54238 7.5 5.54238C6.31278 5.54238 5.16954 5.99168 4.3 6.8C3.49168 7.66955 3.04238 8.81278 3.04238 10C3.04238 11.1872 3.49168 12.3305 4.3 13.2L12 21L19.7 13.2C20.5083 12.3305 20.9576 11.1872 20.9576 10C20.9576 8.81278 20.5083 7.66955 19.7 6.8C18.8305 5.99168 17.6872 5.54238 16.5 5.54238C15.3128 5.54238 14.1695 5.99168 13.3 6.8L12 8Z" stroke="white"/>
</svg>
