<svg width="24" height="24" viewBox="0 0 24 24" fill="none" xmlns="http://www.w3.org/2000/svg">
<path d="M2.5 9L12 15L21.5 9" stroke="white" stroke-miterlimit="10"/>
<path d="M5.5 7L2.5 9V22H21.5V9L18.3 7" stroke="white" stroke-miterlimit="10"/>
<path d="M12 3.2L11.3 2.7C11.1032 2.48475 10.8638 2.31284 10.5969 2.19522C10.3301 2.07761 10.0416 2.01686 9.75 2.01686C9.45837 2.01686 9.16993 2.07761 8.90307 2.19522C8.6362 2.31284 8.39676 2.48475 8.2 2.7C7.98475 2.89676 7.81284 3.1362 7.69522 3.40307C7.5776 3.66993 7.51686 3.95837 7.51686 4.25C7.51686 4.54163 7.5776 4.83007 7.69522 5.09693C7.81284 5.3638 7.98475 5.60324 8.2 5.8L12 9.7L15.8 5.8C16.0153 5.60324 16.1872 5.3638 16.3048 5.09693C16.4224 4.83007 16.4831 4.54163 16.4831 4.25C16.4831 3.95837 16.4224 3.66993 16.3048 3.40307C16.1872 3.1362 16.0153 2.89676 15.8 2.7C15.6032 2.48475 15.3638 2.31284 15.0969 2.19522C14.8301 2.07761 14.5416 2.01686 14.25 2.01686C13.9584 2.01686 13.6699 2.07761 13.4031 2.19522C13.1362 2.31284 12.8968 2.48475 12.7 2.7L12 3.2Z" stroke="white"/>
</svg>
