<svg width="24" height="24" viewBox="0 0 24 24" fill="none" xmlns="http://www.w3.org/2000/svg">
<path d="M9 21.54C11.3003 22.2685 13.7865 22.1406 16 21.18" stroke="white"/>
<path d="M3.34 17C4.21765 18.5201 5.47993 19.7824 7 20.66" stroke="white"/>
<path d="M2.05 11C2.05 11.33 2.05 11.67 2.05 12C2.04838 13.0177 2.20354 14.0296 2.51 15" stroke="white"/>
<path d="M4 6C3.32054 6.90561 2.79981 7.92003 2.46 9" stroke="white"/>
<path d="M8 2.82001C7.28914 3.13311 6.61781 3.52919 6 4.00001" stroke="white"/>
<path d="M18 20C19.6107 18.792 20.8193 17.1259 21.4676 15.2197C22.1159 13.3135 22.1737 11.2561 21.6334 9.31652C21.0931 7.37696 19.98 5.64566 18.4396 4.34915C16.8992 3.05264 15.0033 2.2513 13 2.04999" stroke="white"/>
<path d="M8.5 11.75L11 14.25L15.5 9.75" stroke="white" stroke-miterlimit="10"/>
</svg>
