<svg width="24" height="24" viewBox="0 0 24 24" fill="none" xmlns="http://www.w3.org/2000/svg">
<path d="M9.7 13.7C8.76686 14.0162 7.76771 14.0851 6.8 13.9C5.659 13.6624 4.60995 13.1028 3.77701 12.2876C2.94407 11.4724 2.36211 10.4356 2.1 9.3C1.8075 7.98144 1.98433 6.60213 2.6 5.4L6.9 9.8L9.8 6.9L5.4 2.6C6.60213 1.98433 7.98144 1.8075 9.3 2.1C10.4018 2.34148 11.4112 2.89371 12.2087 3.69126C13.0063 4.48881 13.5585 5.49825 13.8 6.6C14.1546 7.89552 14.0486 9.27396 13.5 10.5L21 18L17.5 21.5L9.7 13.7Z" stroke="white"/>
</svg>
